<svg xmlns="http://www.w3.org/2000/svg" fill="none" viewBox="0 0 50 50"><defs/><path fill="#F2B924" d="M25 0a25 25 0 100 50.001A25 25 0 0025 0zm0 9.722c.254 0 .508.074.73.222l13.965 9.31.023.017.058.045.074.061.05.051c.024.023.046.048.067.073.017.018.03.038.045.056a.985.985 0 01.092.14c.02.028.034.059.046.088.011.02.02.043.031.064l.032.096.02.064c.01.036.017.072.023.11.003.02.008.037.01.057.007.054.013.112.012.17v9.311c0 .058-.005.115-.011.173l-.012.056c-.006.038-.01.074-.022.11-.005.021-.014.044-.021.064-.012.03-.02.063-.03.096l-.033.062a.52.52 0 01-.046.088.501.501 0 01-.037.06.764.764 0 01-.055.079c-.015.02-.027.039-.044.057-.021.024-.043.05-.067.07a1.022 1.022 0 01-.125.115l-.058.045c-.007.004-.015.013-.023.018l-13.965 9.309c-.22.148-.473.219-.728.219-.254 0-.509-.07-.73-.22l-13.964-9.31c-.007-.004-.014-.012-.022-.017-.02-.014-.037-.03-.058-.045a.787.787 0 01-.074-.063c-.02-.015-.036-.033-.053-.051-.024-.022-.044-.047-.065-.07-.016-.02-.033-.038-.046-.058a1.759 1.759 0 01-.055-.08l-.04-.06-.042-.087-.029-.063a3.746 3.746 0 01-.036-.096l-.018-.064a1.562 1.562 0 01-.022-.11 1.242 1.242 0 01-.025-.228v-9.31c0-.059.005-.117.013-.171.002-.02.007-.038.012-.058a.983.983 0 01.022-.11l.018-.063c.012-.033.023-.065.036-.096.008-.021.02-.044.03-.064.014-.03.027-.059.042-.087l.039-.06a1.184 1.184 0 01.166-.209c.017-.017.034-.034.053-.05.024-.02.048-.044.074-.063l.058-.045c.008-.005.014-.012.022-.015l13.965-9.311A1.31 1.31 0 0125 9.722zm-1.31 3.768l-10.292 6.858 4.597 3.073 5.694-3.81V13.49zm2.624 0v6.121l5.692 3.81 4.596-3.073-10.288-6.858zm-1.313 8.405L20.357 25l4.644 3.109L29.645 25l-4.644-3.105zm-12.652.909v4.394L15.634 25l-3.285-2.196zm25.304 0L34.37 25l3.283 2.198v-4.394zM17.995 26.58l-4.597 3.074L23.69 36.51v-6.123l-5.694-3.807zm14.01 0l-5.691 3.808v6.122L36.6 29.655l-4.595-3.074z"/></svg>