
<svg
   width="50"
   height="50"
   fill="currentColor"
   class="bi bi-instagram"
   viewBox="0 0 50 50"
   version="1.1"
   id="svg1"
   sodipodi:docname="instagram.svg"
   xml:space="preserve"
   inkscape:version="1.3 (0e150ed6c4, 2023-07-21)"
   xmlns:inkscape="http://www.inkscape.org/namespaces/inkscape"
   xmlns:sodipodi="http://sodipodi.sourceforge.net/DTD/sodipodi-0.dtd"
   xmlns="http://www.w3.org/2000/svg"
   xmlns:svg="http://www.w3.org/2000/svg"><defs
     id="defs1" /><sodipodi:namedview
     id="namedview1"
     pagecolor="#505050"
     bordercolor="#ffffff"
     borderopacity="1"
     inkscape:showpageshadow="0"
     inkscape:pageopacity="0"
     inkscape:pagecheckerboard="1"
     inkscape:deskcolor="#505050"
     inkscape:zoom="9.2827345"
     inkscape:cx="18.906067"
     inkscape:cy="21.437649"
     inkscape:window-width="2049"
     inkscape:window-height="1058"
     inkscape:window-x="2869"
     inkscape:window-y="-11"
     inkscape:window-maximized="1"
     inkscape:current-layer="svg1" /><path
     id="rect1"
     style="font-variation-settings:normal;vector-effect:none;fill:#f2b924;fill-opacity:1;fill-rule:evenodd;stroke-width:6.469;stroke-linecap:butt;stroke-linejoin:miter;stroke-miterlimit:4;stroke-dasharray:none;stroke-dashoffset:0;stroke-opacity:1;stop-color:#000000"
     d="M 25,0 C 11.150014,0 0,11.150014 0,25 0,38.849986 11.150014,50 25,50 38.849986,50 50,38.849986 50,25 50,11.150014 38.849986,0 25,0 Z m -0.0039,12.5 h 0.002 0.002 c 3.39143,1.8e-5 3.816795,0.01488 5.150391,0.07422 1.329687,0.06094 2.240235,0.272656 3.037109,0.582031 a 6.09375,6.09375 0 0 1 2.212891,1.441406 6.09375,6.09375 0 0 1 1.443359,2.214844 c 0.307812,0.793749 0.517578,1.703517 0.580078,3.033203 0.05937,1.334374 0.07617,1.758989 0.07617,5.154297 0,3.395309 -0.0168,3.819532 -0.07617,5.152344 -0.0625,1.331248 -0.272266,2.239844 -0.580078,3.035156 -0.320312,0.821874 -0.748047,1.519532 -1.443359,2.214844 a 6.09375,6.09375 0 0 1 -2.210938,1.441406 c -0.795311,0.309375 -1.707423,0.519531 -3.037109,0.582031 -1.334374,0.05937 -1.757035,0.07422 -5.152344,0.07422 -3.395309,0 -3.819922,-0.01485 -5.154297,-0.07422 -1.331248,-0.06094 -2.238282,-0.272656 -3.035156,-0.582031 -0.821873,-0.31875 -1.519141,-0.746094 -2.212891,-1.441406 -0.695312,-0.695312 -1.121093,-1.39297 -1.441406,-2.214844 -0.309374,-0.795312 -0.519531,-1.703908 -0.582031,-3.035156 -0.05937,-1.332812 -0.07422,-1.756644 -0.07422,-5.150391 0,-3.39687 0.01484,-3.822266 0.07422,-5.158203 0.06094,-1.328123 0.272657,-2.237501 0.582031,-3.03125 A 6.09375,6.09375 0 0 1 14.597656,14.597656 6.09375,6.09375 0 0 1 16.8125,13.15625 c 0.795312,-0.309375 1.702345,-0.519531 3.035156,-0.582031 1.332034,-0.05934 1.76169,-0.0742 5.148438,-0.07422 z m -1.117188,2.25 c -2.329685,0.0016 -2.776563,0.01719 -3.929687,0.07031 -1.218749,0.05625 -1.879689,0.259765 -2.320313,0.43164 -0.584375,0.226562 -0.999999,0.496094 -1.4375,0.933594 -0.437498,0.437499 -0.708984,0.854688 -0.935546,1.4375 -0.171875,0.440624 -0.375391,1.103516 -0.431641,2.322265 -0.05938,1.317186 -0.07227,1.70977 -0.07227,5.048829 0,3.339058 0.01289,3.733595 0.07227,5.050781 0.05469,1.218749 0.259376,1.88125 0.429687,2.320312 a 3.90625,3.90625 0 0 0 0.9375,1.4375 3.90625,3.90625 0 0 0 1.4375,0.935547 c 0.440624,0.171875 1.101564,0.373438 2.320313,0.429688 1.317186,0.05938 1.715238,0.07422 5.052734,0.07422 3.337497,0 3.731643,-0.01485 5.048829,-0.07422 1.220311,-0.05625 1.882812,-0.257813 2.320312,-0.429688 0.584374,-0.226563 1,-0.498047 1.4375,-0.935547 a 3.90625,3.90625 0 0 0 0.935547,-1.435546 c 0.170313,-0.440625 0.374997,-1.101564 0.429687,-2.320313 0.06094,-1.317187 0.07422,-1.714848 0.07422,-5.050781 0,-3.335934 -0.01328,-3.72969 -0.07422,-5.046875 -0.05469,-1.218749 -0.257812,-1.881251 -0.429687,-2.320313 -0.226562,-0.584374 -0.496094,-1 -0.933594,-1.4375 -0.437499,-0.437499 -0.854687,-0.710937 -1.4375,-0.9375 -0.440624,-0.170312 -1.103517,-0.375 -2.322265,-0.429687 -1.317186,-0.06094 -1.711332,-0.07031 -5.048829,-0.07031 h -1.123047 z m 7.794922,2.078125 a 1.5,1.5 0 0 1 0,3 1.5,1.5 0 1 1 0,-3 z m -6.671875,1.753906 a 6.4203125,6.4203125 0 0 1 0,12.837891 6.4203125,6.4203125 0 1 1 0,-12.837891 z m 0,2.25 a 4.1679689,4.1679689 0 0 0 0,8.335938 4.1679689,4.1679689 0 1 0 0,-8.335938 z" /></svg>
