<svg xmlns="http://www.w3.org/2000/svg" viewBox="0 0 47.625 47.625" {...props}>
  <g transform="translate(-91.092 -108.48)">
    <circle cx={114.905} cy={132.292} r={23.813} fill="#f2b924" />
    <g fill="#606080" transform="matrix(.6546 0 0 .6171 1953.952 394.839)">
      <path
        d="M-2795.058-409.083l-14.552 14.499h-14.552v-14.499l-14.552-11.774h5.556v-5.556l-5.557-.054 14.553-13.096v-16.753h8.995l5.556 14.552v-14.552c1.913-.036 5.945.05 8.996 0l5.557 16.753" />
      <circle cx={-2809.61} cy={-409.136} r={14.552} fillRule="evenodd" />
    </g>
    <path fill="#606080" d="M118.906 133.25l5.526.132h9.525v8.98h-17.335" />
    <path fill="#202540" fillRule="evenodd" d="M128.068 133.382h5.888v5.551h-5.888z" style={{
      fontVariationSettings: "normal" , }} />
    <path fill="#202540" d="M107.2 120.513v-5.551h3.64l2.249 5.551zm9.525 0v-5.551h3.64l2.25 5.551z" />
    <path fill="#202540" fillRule="evenodd" d="M116.724 125.708h3.64v7.674h-3.64z" style={{
      fontVariationSettings: "normal" , }} />
    <path fill="#ffebbf" fillRule="evenodd" d="M120.363 125.708h2.252v7.674h-2.252z" style={{
      fontVariationSettings: "normal" , }} />
    <path fill="#202540" fillRule="evenodd" d="M109.017 125.708h3.64v7.674h-3.64z" style={{
      fontVariationSettings: "normal" , }} />
    <path fill="#ffebbf" fillRule="evenodd" d="M112.656 125.708h2.252v7.674h-2.252z" style={{
      fontVariationSettings: "normal" , }} />
  </g>
</svg>