<?xml version="1.0" standalone="no"?>
<!DOCTYPE svg PUBLIC "-//W3C//DTD SVG 20010904//EN"
 "http://www.w3.org/TR/2001/REC-SVG-20010904/DTD/svg10.dtd">
<svg version="1.0" xmlns="http://www.w3.org/2000/svg"
 width="700.000000pt" height="700.000000pt" viewBox="0 0 700.000000 700.000000"
 preserveAspectRatio="xMidYMid meet">
<metadata>
Created by potrace 1.14, written by Peter Selinger 2001-2017
</metadata>
<g transform="translate(0.000000,700.000000) scale(0.100000,-0.100000)"
fill="#000000" stroke="none">
<path d="M2100 5538 l-1 -763 -696 -590 -696 -590 266 -3 267 -2 0 -255 0
-255 -263 -2 -263 -3 693 -529 693 -529 0 -659 0 -659 788 4 c853 4 831 3
1037 62 105 30 286 115 376 176 351 236 560 586 594 996 l7 83 699 0 699 0 0
660 0 660 -700 0 -700 0 0 718 0 717 -268 760 -267 760 -433 3 -432 2 -2 -657
-3 -657 -265 654 -265 655 -432 3 -433 2 0 -762z m1400 -1633 l0 -565 -165 0
-165 0 0 565 0 565 165 0 165 0 0 -565z m1140 0 l0 -565 -170 0 -170 0 0 565
0 565 170 0 170 0 0 -565z"/>
</g>
</svg>
